<?xml version="1.0" encoding="UTF-8" standalone="no"?>
<!-- Created with Inkscape (http://www.inkscape.org/) -->

<svg
   xmlns:dc="http://purl.org/dc/elements/1.1/"
   xmlns:cc="http://creativecommons.org/ns#"
   xmlns:rdf="http://www.w3.org/1999/02/22-rdf-syntax-ns#"
   xmlns:svg="http://www.w3.org/2000/svg"
   xmlns="http://www.w3.org/2000/svg"
   xmlns:inkscape="http://www.inkscape.org/namespaces/inkscape"
   version="1.1"
   width="884.82373"
   height="494.90125"
   id="svg2"
   xml:space="preserve"><metadata
     id="metadata8"><rdf:RDF><cc:Work
         rdf:about=""><dc:format>image/svg+xml</dc:format><dc:type
           rdf:resource="http://purl.org/dc/dcmitype/StillImage" /></cc:Work></rdf:RDF></metadata><defs
     id="defs6"><clipPath
       id="clipPath16"><path
         d="m 0,395.921 707.859,0 L 707.859,0 0,0 0,395.921 z"
         inkscape:connector-curvature="0"
         id="path18" /></clipPath></defs><g
     transform="matrix(1.25,0,0,-1.25,0,494.90125)"
     id="g10"><g
       id="g12"><g
         clip-path="url(#clipPath16)"
         id="g14"><g
           transform="translate(290.9541,80.6074)"
           id="g20"><path
             d="M 0,0 3.188,0 C 3.963,0 4.565,0.159 4.99,0.479 5.415,0.797 5.628,1.21 5.628,1.72 5.628,2.076 5.529,2.409 5.337,2.716 5.147,3.021 4.876,3.257 4.53,3.422 4.18,3.589 3.66,3.674 2.972,3.674 L 0,3.674 0,0 z m 0,4.626 2.586,0 c 1.074,0 1.79,0.174 2.152,0.52 0.359,0.344 0.539,0.75 0.539,1.216 0,0.458 -0.192,0.83 -0.578,1.116 C 4.31,7.763 3.735,7.902 2.972,7.902 L 0,7.902 0,4.626 z m -1.437,-5.726 0,10.024 4.704,0 C 4.451,8.924 5.329,8.68 5.899,8.191 6.474,7.702 6.757,7.133 6.757,6.487 6.757,5.353 6.057,4.599 4.651,4.229 5.486,4.046 6.108,3.724 6.514,3.259 6.923,2.792 7.123,2.265 7.123,1.677 7.123,0.888 6.809,0.229 6.179,-0.303 5.549,-0.834 4.577,-1.1 3.267,-1.1 l -4.704,0 z"
             inkscape:connector-curvature="0"
             id="path22"
             style="fill:#000000;fill-opacity:1;fill-rule:nonzero;stroke:none" /></g><g
           transform="translate(291.0527,85.3184)"
           id="g24"><path
             d="M 0,0 2.487,0 C 3.526,0 4.227,0.163 4.564,0.488 4.907,0.816 5.08,1.208 5.08,1.651 5.08,2.082 4.896,2.438 4.533,2.704 4.168,2.972 3.608,3.108 2.873,3.108 L 0,3.108 0,0 z m 2.487,-0.165 -2.684,0 0,3.439 3.07,0 C 3.66,3.274 4.262,3.125 4.668,2.827 5.072,2.528 5.277,2.133 5.277,1.651 5.277,1.165 5.084,0.738 4.711,0.38 4.329,0.012 3.601,-0.165 2.487,-0.165 M 0,-4.628 l 3.09,0 c 0.747,0 1.334,0.155 1.734,0.458 0.41,0.304 0.603,0.69 0.603,1.179 0,0.343 -0.091,0.661 -0.276,0.957 -0.18,0.289 -0.44,0.515 -0.771,0.675 C 4.05,-1.202 3.542,-1.12 2.873,-1.12 L 0,-1.12 0,-4.628 z m 3.09,-0.163 -3.287,0 0,3.837 3.07,0 c 0.704,0 1.243,-0.089 1.606,-0.262 0.362,-0.174 0.649,-0.424 0.849,-0.74 0.197,-0.318 0.296,-0.667 0.296,-1.035 0,-0.533 -0.225,-0.97 -0.669,-1.303 C 4.518,-4.626 3.889,-4.791 3.09,-4.791 m -4.527,-0.937 4.605,0 c 1.275,0 2.235,0.26 2.842,0.771 0.609,0.514 0.916,1.161 0.916,1.923 0,0.568 -0.197,1.082 -0.59,1.531 -0.39,0.448 -1,0.765 -1.811,0.939 l -0.33,0.074 0.326,0.087 c 1.375,0.362 2.04,1.074 2.04,2.179 0,0.622 -0.28,1.173 -0.831,1.644 C 5.183,3.892 4.317,4.13 3.168,4.13 l -4.605,0 0,-9.858 z m 4.605,-0.166 -4.801,0 0,10.19 4.801,0 c 1.208,0 2.113,-0.254 2.703,-0.758 0.587,-0.502 0.886,-1.094 0.886,-1.762 0,-1.088 -0.634,-1.845 -1.881,-2.253 0.708,-0.194 1.251,-0.506 1.617,-0.928 0.417,-0.476 0.63,-1.026 0.63,-1.629 0,-0.807 -0.326,-1.493 -0.972,-2.039 C 5.502,-5.618 4.498,-5.894 3.168,-5.894"
             inkscape:connector-curvature="0"
             id="path26"
             style="fill:#231f20;fill-opacity:1;fill-rule:nonzero;stroke:none" /></g><g
           transform="translate(315.96,84.8682)"
           id="g28"><path
             d="m 0,0 3.108,0 c 0.82,0 1.429,0.181 1.834,0.547 0.403,0.363 0.607,0.81 0.607,1.34 0,0.527 -0.217,0.94 -0.642,1.233 C 4.479,3.414 3.943,3.563 3.29,3.563 L 0,3.563 0,0 z m 7.158,-5.36 -1.558,0 -2.196,4.339 -3.404,0 0,-4.339 -1.394,0 0,10.023 4.684,0 C 4.565,4.663 5.506,4.37 6.115,3.785 6.729,3.201 7.036,2.56 7.036,1.865 7.036,1.33 6.863,0.818 6.521,0.33 6.183,-0.16 5.616,-0.51 4.825,-0.721 L 7.158,-5.36 z"
             inkscape:connector-curvature="0"
             id="path30"
             style="fill:#000000;fill-opacity:1;fill-rule:nonzero;stroke:none" /></g><g
           transform="translate(316.0586,84.9502)"
           id="g32"><path
             d="m 0,0 3.01,0 c 0.787,0 1.378,0.176 1.763,0.521 0.382,0.349 0.579,0.78 0.579,1.284 0,0.508 -0.197,0.889 -0.606,1.171 -0.406,0.279 -0.93,0.42 -1.555,0.42 L 0,3.396 0,0 z m 3.01,-0.165 -3.207,0 0,3.727 3.388,0 c 0.673,0 1.236,-0.154 1.68,-0.458 C 5.32,2.794 5.545,2.357 5.545,1.805 5.545,1.258 5.336,0.789 4.915,0.407 4.494,0.027 3.853,-0.165 3.01,-0.165 m 2.554,-5.194 1.346,0 -2.318,4.609 0.106,0.028 c 0.764,0.202 1.315,0.543 1.642,1.013 0.33,0.473 0.5,0.975 0.5,1.492 0,0.671 -0.3,1.299 -0.894,1.865 -0.591,0.563 -1.515,0.85 -2.755,0.85 l -4.585,0 0,-9.857 1.197,0 0,4.338 3.569,0 0.024,-0.049 2.168,-4.289 z m 1.645,-0.166 -1.774,0 -0.024,0.049 -2.169,4.289 -3.242,0 0,-4.338 -1.59,0 0,10.189 4.781,0 C 4.486,4.664 5.462,4.36 6.092,3.759 6.717,3.16 7.036,2.495 7.036,1.783 7.036,1.236 6.859,0.707 6.509,0.205 6.17,-0.277 5.615,-0.632 4.859,-0.852 l 2.35,-4.673 z"
             inkscape:connector-curvature="0"
             id="path34"
             style="fill:#231f20;fill-opacity:1;fill-rule:nonzero;stroke:none" /></g><g
           transform="translate(347.4551,80.6074)"
           id="g36"><path
             d="m 0,0 0,-1.1 -7.689,0 0,10.024 7.523,0 0,-1.1 -6.036,0 0,-3.19 4.789,0 0,-1.019 -4.789,0 L -6.202,0 0,0 z"
             inkscape:connector-curvature="0"
             id="path38"
             style="fill:#000000;fill-opacity:1;fill-rule:nonzero;stroke:none" /></g><g
           transform="translate(339.8594,79.5908)"
           id="g40"><path
             d="m 0,0 7.497,0 0,0.937 -6.198,0 0,3.775 4.785,0 0,0.856 -4.785,0 0,3.353 6.033,0 0,0.936 L 0,9.857 0,0 z m 7.693,-0.166 -7.885,0 0,10.189 7.72,0 0,-1.267 -6.036,0 0,-3.023 4.789,0 0,-1.186 -4.789,0 0,-3.447 6.201,0 0,-1.266 z"
             inkscape:connector-curvature="0"
             id="path42"
             style="fill:#231f20;fill-opacity:1;fill-rule:nonzero;stroke:none" /></g><g
           transform="translate(376.5527,89.5313)"
           id="g44"><path
             d="m 0,0 -2.856,-10.023 -1.492,0 -2.597,7.774 -2.405,-7.774 -1.535,0 L -13.903,0 -12.356,0 -9.976,-8.123 -7.453,0 -6.241,0 -3.521,-8.123 -1.307,0 0,0 z"
             inkscape:connector-curvature="0"
             id="path46"
             style="fill:#000000;fill-opacity:1;fill-rule:nonzero;stroke:none" /></g><g
           transform="translate(372.2793,79.5908)"
           id="g48"><path
             d="m 0,0 1.338,0 2.814,9.857 -1.106,0 -2.286,-8.374 -2.803,8.374 -1.062,0 -2.601,-8.376 -2.452,8.376 -1.342,0 L -6.533,0 -5.155,0 -2.676,8.01 -2.574,7.717 0,0 z m 1.491,-0.166 -1.64,0 -0.024,0.06 -2.495,7.481 -2.334,-7.541 -1.685,0 -0.019,0.062 -3.046,10.127 1.743,0 2.311,-7.869 2.443,7.869 1.362,0 0.02,-0.059 2.613,-7.812 2.149,7.871 1.511,0 -0.028,-0.1 -2.881,-10.089 z"
             inkscape:connector-curvature="0"
             id="path50"
             style="fill:#231f20;fill-opacity:1;fill-rule:nonzero;stroke:none" /></g><path
           d="m 394.141,79.508 -1.492,0 0,10.023 1.492,0 0,-10.023 z"
           inkscape:connector-curvature="0"
           id="path52"
           style="fill:#000000;fill-opacity:1;fill-rule:nonzero;stroke:none" /><path
           d="m 392.747,79.591 1.291,0 0,9.857 -1.291,0 0,-9.857 z m 1.487,-0.166 -1.684,0 0,10.189 1.684,0 0,-10.189 z"
           inkscape:connector-curvature="0"
           id="path54"
           style="fill:#231f20;fill-opacity:1;fill-rule:nonzero;stroke:none" /><g
           transform="translate(420.126,79.5078)"
           id="g56"><path
             d="m 0,0 -1.44,0 -6.152,8.738 0.017,-0.661 c 0.019,-0.25 0.027,-0.46 0.027,-0.632 l 0,-7.445 -1.201,0 0,10.023 1.862,0 5.745,-8.169 -0.011,0.698 c -0.016,0.273 -0.02,0.515 -0.02,0.726 l 0,6.745 1.173,0 L 0,0 z"
             inkscape:connector-curvature="0"
             id="path58"
             style="fill:#000000;fill-opacity:1;fill-rule:nonzero;stroke:none" /></g><g
           transform="translate(418.7402,79.5908)"
           id="g60"><path
             d="m 0,0 1.291,0 0,9.857 -0.979,0 0,-6.662 c 0,-0.209 0.003,-0.451 0.015,-0.724 l 0.027,-1.013 -5.911,8.399 -1.708,0 0,-9.857 1.008,0 0,7.362 c 0,0.17 -0.012,0.38 -0.027,0.626 L -6.313,8.971 -6.123,8.697 0,0 z m 1.488,-0.166 -1.601,0 -0.029,0.04 -5.958,8.465 0.012,-0.343 c 0.016,-0.248 0.024,-0.462 0.024,-0.634 l 0,-7.528 -1.397,0 0,10.189 2.015,0 0.031,-0.04 L 0.143,2.085 0.131,2.467 C 0.122,2.74 0.114,2.982 0.114,3.195 l 0,6.828 1.374,0 0,-10.189 z"
             inkscape:connector-curvature="0"
             id="path62"
             style="fill:#231f20;fill-opacity:1;fill-rule:nonzero;stroke:none" /></g><g
           transform="translate(446.1699,84.5586)"
           id="g64"><path
             d="m 0,0 0,-5.192 -0.908,0 -0.41,1.254 c -0.732,-0.878 -1.822,-1.32 -3.266,-1.32 -1.57,0 -2.791,0.498 -3.66,1.492 -0.874,0.994 -1.307,2.202 -1.307,3.622 0,1.52 0.461,2.787 1.381,3.8 0.926,1.016 2.181,1.523 3.763,1.523 2.192,0 3.616,-0.97 4.286,-2.908 L -1.534,1.983 c -0.201,0.745 -0.583,1.286 -1.138,1.624 -0.555,0.338 -1.169,0.505 -1.83,0.505 -1.172,0 -2.038,-0.399 -2.593,-1.198 -0.559,-0.797 -0.839,-1.8 -0.839,-3.005 0,-1.3 0.312,-2.315 0.938,-3.048 0.625,-0.731 1.471,-1.097 2.55,-1.097 0.834,0 1.53,0.234 2.089,0.702 0.563,0.467 0.842,1.116 0.842,1.94 0,0.152 -0.007,0.333 -0.019,0.545 l -2.941,0 0,1.049 L 0,0 z"
             inkscape:connector-curvature="0"
             id="path66"
             style="fill:#000000;fill-opacity:1;fill-rule:nonzero;stroke:none" /></g><g
           transform="translate(441.7627,89.6533)"
           id="g68"><path
             d="m 0,0 c -1.543,0 -2.782,-0.5 -3.684,-1.487 -0.905,-0.994 -1.361,-2.255 -1.361,-3.751 0,-1.397 0.433,-2.6 1.286,-3.574 0.847,-0.965 2.051,-1.458 3.582,-1.458 1.405,0 2.475,0.431 3.184,1.288 l 0.122,0.143 0.444,-1.366 0.737,0 0,5.028 -4.279,0 0,-0.886 2.941,0 0.004,-0.079 c 0.011,-0.212 0.015,-0.395 0.015,-0.546 0,-0.844 -0.291,-1.517 -0.87,-2 -0.578,-0.482 -1.303,-0.726 -2.16,-0.726 -1.107,0 -1.991,0.38 -2.629,1.132 -0.634,0.744 -0.952,1.785 -0.952,3.096 0,1.217 0.283,2.241 0.846,3.049 0.574,0.821 1.475,1.238 2.679,1.238 0.682,0 1.315,-0.173 1.886,-0.522 0.555,-0.335 0.944,-0.87 1.157,-1.59 l 1.216,0.246 C 3.495,-0.905 2.129,0 0,0 m -0.177,-10.435 c -1.594,0 -2.853,0.514 -3.739,1.525 -0.881,1.004 -1.326,2.239 -1.326,3.672 0,1.533 0.472,2.828 1.405,3.85 0.937,1.032 2.232,1.555 3.837,1.555 2.228,0 3.703,-0.999 4.38,-2.969 L 4.411,-2.883 4.31,-2.904 2.802,-3.211 2.778,-3.131 c -0.196,0.723 -0.566,1.252 -1.101,1.576 -0.535,0.325 -1.134,0.489 -1.772,0.489 -1.129,0 -1.975,-0.388 -2.51,-1.158 -0.543,-0.779 -0.823,-1.776 -0.823,-2.962 0,-1.276 0.312,-2.284 0.917,-2.998 0.602,-0.707 1.437,-1.064 2.472,-1.064 0.803,0 1.483,0.228 2.022,0.681 0.539,0.448 0.811,1.08 0.811,1.879 0,0.131 -0.004,0.285 -0.016,0.46 l -2.943,0 0,1.216 4.671,0 0,-5.358 -1.082,0 -0.378,1.153 c -0.744,-0.808 -1.826,-1.218 -3.223,-1.218"
             inkscape:connector-curvature="0"
             id="path70"
             style="fill:#231f20;fill-opacity:1;fill-rule:nonzero;stroke:none" /></g><g
           transform="translate(489.0234,82.8779)"
           id="g72"><path
             d="m 0,0 1.357,-0.258 c -0.649,-2.211 -2.117,-3.319 -4.408,-3.319 -1.499,0 -2.679,0.512 -3.537,1.537 -0.854,1.023 -1.283,2.282 -1.283,3.776 0,1.544 0.444,2.785 1.342,3.719 0.893,0.937 2.09,1.404 3.596,1.404 2.228,0 3.661,-1.074 4.29,-3.224 L -0.044,3.4 C -0.556,4.996 -1.52,5.793 -2.944,5.793 -3.991,5.793 -4.81,5.424 -5.388,4.682 -5.963,3.939 -6.25,2.898 -6.25,1.557 c 0,-1.23 0.295,-2.215 0.886,-2.957 0.593,-0.741 1.377,-1.113 2.353,-1.113 1.515,0 2.519,0.837 3.011,2.513"
             inkscape:connector-curvature="0"
             id="path74"
             style="fill:#000000;fill-opacity:1;fill-rule:nonzero;stroke:none" /></g><g
           transform="translate(486.0908,89.6533)"
           id="g76"><path
             d="m 0,0 c -1.468,0 -2.652,-0.463 -3.522,-1.371 -0.874,-0.918 -1.319,-2.15 -1.319,-3.668 0,-1.471 0.426,-2.724 1.268,-3.73 0.834,-0.995 1.995,-1.501 3.455,-1.501 2.2,0 3.64,1.069 4.29,3.176 L 3.007,-6.873 C 2.491,-8.53 1.456,-9.37 -0.078,-9.37 c -1.008,0 -1.826,0.386 -2.437,1.149 -0.597,0.751 -0.901,1.761 -0.901,3.002 0,1.35 0.296,2.417 0.882,3.17 0.594,0.766 1.444,1.15 2.522,1.15 1.445,0 2.445,-0.801 2.972,-2.379 l 1.212,0.202 C 3.534,-1.006 2.169,0 0,0 m -0.118,-10.435 c -1.527,0 -2.742,0.528 -3.616,1.573 -0.863,1.032 -1.303,2.317 -1.303,3.823 0,1.557 0.456,2.823 1.362,3.769 0.908,0.956 2.145,1.437 3.675,1.437 2.267,0 3.747,-1.107 4.388,-3.288 L 4.412,-3.207 2.818,-3.473 2.794,-3.396 c -0.499,1.568 -1.42,2.33 -2.806,2.33 -1.007,0 -1.801,-0.359 -2.357,-1.073 -0.567,-0.726 -0.854,-1.761 -0.854,-3.08 0,-1.206 0.295,-2.185 0.874,-2.91 0.571,-0.714 1.334,-1.076 2.271,-1.076 1.475,0 2.432,0.801 2.916,2.45 L 2.861,-6.677 4.412,-6.97 4.388,-7.055 c -0.657,-2.243 -2.176,-3.38 -4.506,-3.38"
             inkscape:connector-curvature="0"
             id="path78"
             style="fill:#231f20;fill-opacity:1;fill-rule:nonzero;stroke:none" /></g><g
           transform="translate(510.6328,80.3223)"
           id="g80"><path
             d="m 0,0 c 1.038,0 1.854,0.399 2.439,1.198 0.586,0.797 0.877,1.826 0.877,3.088 0,1.292 -0.302,2.3 -0.908,3.02 -0.606,0.72 -1.409,1.081 -2.417,1.081 -1.014,0 -1.821,-0.39 -2.42,-1.169 -0.598,-0.78 -0.897,-1.799 -0.897,-3.058 0,-1.23 0.303,-2.231 0.905,-3.003 C -1.814,0.386 -1.008,0 0,0 m -0.032,-1.021 c -1.531,0 -2.72,0.5 -3.573,1.503 -0.854,1.001 -1.28,2.23 -1.28,3.686 0,1.519 0.446,2.772 1.342,3.762 0.894,0.99 2.078,1.485 3.551,1.485 1.471,0 2.648,-0.487 3.537,-1.46 C 4.435,6.983 4.879,5.758 4.879,4.278 4.879,2.857 4.446,1.619 3.584,0.563 2.723,-0.494 1.515,-1.021 -0.032,-1.021"
             inkscape:connector-curvature="0"
             id="path82"
             style="fill:#000000;fill-opacity:1;fill-rule:nonzero;stroke:none" /></g><g
           transform="translate(510.624,88.626)"
           id="g84"><path
             d="m 0,0 c -0.976,0 -1.763,-0.38 -2.337,-1.131 -0.587,-0.762 -0.882,-1.777 -0.882,-3.013 0,-1.208 0.299,-2.202 0.89,-2.958 0.582,-0.741 1.369,-1.119 2.338,-1.119 1.014,0 1.782,0.38 2.356,1.158 0.575,0.782 0.866,1.807 0.866,3.045 0,1.269 -0.302,2.271 -0.893,2.973 C 1.752,-0.353 0.969,0 0,0 m 0.009,-8.387 c -1.039,0 -1.882,0.403 -2.5,1.196 -0.613,0.781 -0.924,1.807 -0.924,3.047 0,1.269 0.307,2.314 0.912,3.105 0.614,0.799 1.457,1.204 2.503,1.204 1.035,0 1.874,-0.374 2.499,-1.113 0.614,-0.735 0.925,-1.765 0.925,-3.07 0,-1.269 -0.299,-2.324 -0.89,-3.13 C 1.929,-7.971 1.083,-8.387 0.009,-8.387 m 0.008,9.414 c -1.434,0 -2.606,-0.488 -3.472,-1.452 -0.878,-0.968 -1.322,-2.218 -1.322,-3.711 0,-1.432 0.424,-2.657 1.259,-3.636 0.83,-0.976 2.007,-1.47 3.495,-1.47 1.506,0 2.696,0.521 3.534,1.549 0.849,1.037 1.275,2.27 1.275,3.668 0,1.453 -0.441,2.673 -1.31,3.628 C 2.613,0.549 1.448,1.027 0.017,1.027 m -0.04,-10.434 c -1.554,0 -2.783,0.515 -3.652,1.536 -0.862,1.012 -1.299,2.267 -1.299,3.735 0,1.531 0.46,2.814 1.362,3.814 0.909,1.007 2.129,1.516 3.629,1.516 1.495,0 2.711,-0.502 3.616,-1.491 0.897,-0.984 1.349,-2.237 1.349,-3.728 0,-1.433 -0.436,-2.699 -1.306,-3.763 -0.882,-1.074 -2.125,-1.619 -3.699,-1.619"
             inkscape:connector-curvature="0"
             id="path86"
             style="fill:#231f20;fill-opacity:1;fill-rule:nonzero;stroke:none" /></g><g
           transform="translate(543.4971,79.5078)"
           id="g88"><path
             d="m 0,0 -1.448,0 0,8.752 L -5.306,0 l -1.01,0 -3.901,8.752 0,-8.752 -1.262,0 0,10.023 2.203,0 3.593,-8.018 3.502,8.018 2.181,0 L 0,0 z"
             inkscape:connector-curvature="0"
             id="path90"
             style="fill:#000000;fill-opacity:1;fill-rule:nonzero;stroke:none" /></g><g
           transform="translate(542.1465,79.5908)"
           id="g92"><path
             d="m 0,0 1.248,0 0,9.857 -2.007,0 -3.573,-8.173 -3.66,8.173 -2.039,0 0,-9.857 1.066,0 0,9.128 L -4.899,0 -4.021,0 0,9.132 0,0 z m 1.445,-0.166 -1.641,0 0,8.375 -3.692,-8.375 -1.149,0 -0.024,0.052 -3.707,8.327 0,-8.379 -1.46,0 0,10.189 2.374,0 3.522,-7.863 3.436,7.863 2.341,0 0,-10.189 z"
             inkscape:connector-curvature="0"
             id="path94"
             style="fill:#231f20;fill-opacity:1;fill-rule:nonzero;stroke:none" /></g><g
           transform="translate(562.2217,84.6201)"
           id="g96"><path
             d="m 0,0 2.735,0 c 0.701,0 1.267,0.175 1.696,0.531 0.429,0.354 0.645,0.823 0.645,1.405 0,0.5 -0.188,0.945 -0.574,1.337 C 4.12,3.666 3.565,3.86 2.837,3.86 L 0,3.86 0,0 z m 0,-5.112 -1.487,0 0,10.023 4.21,0 C 4.046,4.911 5.018,4.608 5.644,4.004 6.269,3.4 6.584,2.711 6.584,1.936 6.584,1.074 6.241,0.363 5.561,-0.201 4.876,-0.764 3.982,-1.045 2.88,-1.045 l -2.88,0 0,-4.067 z"
             inkscape:connector-curvature="0"
             id="path98"
             style="fill:#000000;fill-opacity:1;fill-rule:nonzero;stroke:none" /></g><g
           transform="translate(562.3203,84.7021)"
           id="g100"><path
             d="m 0,0 2.637,0 c 0.672,0 1.219,0.172 1.629,0.508 0.413,0.341 0.613,0.783 0.613,1.346 0,0.478 -0.185,0.911 -0.551,1.285 -0.361,0.37 -0.896,0.558 -1.59,0.558 L 0,3.697 0,0 z m 2.637,-0.167 -2.834,0 0,4.03 2.935,0 C 3.494,3.863 4.076,3.654 4.479,3.245 4.875,2.84 5.076,2.371 5.076,1.854 5.076,1.252 4.848,0.758 4.403,0.39 3.955,0.02 3.36,-0.167 2.637,-0.167 m -4.129,-4.944 1.295,0 0,4.066 2.978,0 c 1.075,0 1.952,0.277 2.61,0.821 C 6.052,0.321 6.387,1.02 6.387,1.854 6.387,2.605 6.08,3.28 5.47,3.869 4.863,4.451 3.911,4.746 2.624,4.746 l -4.116,0 0,-9.857 z M 0,-5.277 l -1.685,0 0,10.189 4.309,0 c 1.347,0 2.35,-0.313 2.995,-0.937 C 6.261,3.359 6.583,2.645 6.583,1.854 6.583,0.975 6.229,0.234 5.533,-0.342 4.832,-0.917 3.907,-1.21 2.781,-1.21 L 0,-1.21 0,-5.277 z"
             inkscape:connector-curvature="0"
             id="path102"
             style="fill:#231f20;fill-opacity:1;fill-rule:nonzero;stroke:none" /></g><g
           transform="translate(589.2305,83.376)"
           id="g104"><path
             d="M 0,0 -1.842,4.819 -3.68,0 0,0 z m 3.033,-3.868 -1.522,0 -1.197,2.93 -4.408,0 -1.062,-2.93 -1.247,0 3.864,10.023 1.685,0 3.887,-10.023 z"
             inkscape:connector-curvature="0"
             id="path106"
             style="fill:#000000;fill-opacity:1;fill-rule:nonzero;stroke:none" /></g><g
           transform="translate(585.6846,83.459)"
           id="g108"><path
             d="M 0,0 3.411,0 1.704,4.465 0,0 z m 3.683,-0.165 -3.952,0 0.04,0.107 1.933,5.064 1.979,-5.171 z m 1.445,-3.703 1.314,0 -3.826,9.857 -1.538,0 -3.798,-9.857 1.035,0 1.063,2.93 4.553,0 0.024,-0.058 1.173,-2.872 z m 1.586,-0.166 -1.729,0 -0.019,0.055 -1.172,2.875 -4.271,0 -1.062,-2.93 -1.452,0 0.043,0.108 3.885,10.081 1.826,0 L 2.782,6.1 6.714,-4.034 z"
             inkscape:connector-curvature="0"
             id="path110"
             style="fill:#231f20;fill-opacity:1;fill-rule:nonzero;stroke:none" /></g><g
           transform="translate(616.8291,79.5078)"
           id="g112"><path
             d="m 0,0 -1.444,0 -6.148,8.738 0.017,-0.661 c 0.019,-0.25 0.027,-0.46 0.027,-0.632 l 0,-7.445 -1.201,0 0,10.023 1.862,0 5.749,-8.169 -0.019,0.698 c -0.012,0.273 -0.016,0.515 -0.016,0.726 l 0,6.745 1.173,0 L 0,0 z"
             inkscape:connector-curvature="0"
             id="path114"
             style="fill:#000000;fill-opacity:1;fill-rule:nonzero;stroke:none" /></g><g
           transform="translate(615.4434,79.5908)"
           id="g116"><path
             d="m 0,0 1.291,0 0,9.857 -0.979,0 0,-6.662 c 0,-0.209 0.003,-0.451 0.015,-0.724 l 0.027,-1.013 -5.911,8.399 -1.712,0 0,-9.857 1.008,0 0,7.362 c 0,0.17 -0.008,0.38 -0.023,0.626 L -6.313,8.971 -6.123,8.697 0,0 z m 1.484,-0.166 -1.597,0 -0.029,0.04 -5.958,8.465 0.012,-0.343 c 0.016,-0.248 0.024,-0.462 0.024,-0.634 l 0,-7.528 -1.397,0 0,10.189 2.015,0 0.031,-0.04 L 0.143,2.085 0.13,2.467 C 0.122,2.74 0.114,2.982 0.114,3.195 l 0,6.828 1.37,0 0,-10.189 z"
             inkscape:connector-curvature="0"
             id="path118"
             style="fill:#231f20;fill-opacity:1;fill-rule:nonzero;stroke:none" /></g><g
           transform="translate(641.8545,89.5313)"
           id="g120"><path
             d="m 0,0 -3.979,-5.809 0,-4.214 -1.492,0 0,4.214 L -9.449,0 -7.687,0 -4.534,-4.606 -1.358,0 0,0 z"
             inkscape:connector-curvature="0"
             id="path122"
             style="fill:#000000;fill-opacity:1;fill-rule:nonzero;stroke:none" /></g><g
           transform="translate(636.4824,79.5908)"
           id="g124"><path
             d="m 0,0 1.295,0 0,4.153 0.012,0.02 3.896,5.684 -1.134,0 -3.231,-4.688 -0.086,0.124 -3.125,4.564 -1.535,0 L 0,4.153 0,0 z m 1.491,-0.166 -1.688,0 0,4.276 -4.049,5.913 1.987,0 0.028,-0.04 3.069,-4.482 3.121,4.522 1.582,0 L 5.458,9.899 1.491,4.11 l 0,-4.276 z"
             inkscape:connector-curvature="0"
             id="path126"
             style="fill:#231f20;fill-opacity:1;fill-rule:nonzero;stroke:none" /></g><g
           transform="translate(215.21,363.3149)"
           id="g128"><path
             d="m 0,0 c 0.516,-1.781 -0.886,-4.106 -1.811,-6.535 -1.585,-4.142 -3.459,-8.299 -6.536,-10.887 -0.842,-5.236 2.337,-9.805 2.905,-14.884 0.31,-2.751 -0.816,-5.984 0,-8.711 1.479,-4.954 9.452,-4.13 11.978,-8.347 6.781,4.351 12.476,9.788 17.784,15.608 0.036,1.484 -1.798,1.104 -2.175,2.176 0.271,2.393 2.747,2.578 3.266,4.721 -0.418,2.365 -2.621,2.945 -3.991,4.355 -2.224,4.307 -1.023,10.543 -0.366,14.519 3.054,-4.087 0.759,-13.522 6.537,-14.884 2.542,1.332 4.136,6.232 2.538,9.439 1.145,2.121 2.224,4.31 3.995,5.807 0.051,-0.793 0.912,-0.779 1.814,-0.726 -0.937,-2.698 -3.384,-6.491 -1.453,-9.799 -2.738,-3.432 -3.754,-8.587 -6.894,-11.615 0.748,-1.429 1.739,-2.612 2.176,-4.357 -4.088,-4.691 -9.358,-8.811 -14.156,-13.429 -1.593,-1.535 -3.805,-2.958 -4.718,-4.355 -0.744,-1.136 -0.701,-2.975 -1.456,-4.356 -4.227,-7.765 -14.522,-8.985 -14.879,-19.601 -3.366,-2.926 -8.265,-4.317 -9.8,-9.075 -5.616,0.721 -7.013,-5.442 -9.075,-9.437 5.325,-2.778 8.516,3.566 12.341,4.355 2.523,0.521 5.817,-0.628 8.351,-0.362 4.384,0.462 11.964,4.864 15.242,6.897 1.55,0.958 3.911,2.748 4.719,4.354 2.68,5.316 0.925,10.486 7.984,12.705 -0.83,3.957 0.827,7.3 0.729,10.889 -0.06,2.267 -1.421,4.105 -1.091,6.171 0.453,2.82 3.196,4.4 3.633,7.259 3.385,-0.805 0.984,-4.882 0,-6.535 14.428,2.393 9.13,27.653 17.784,37.025 2.656,-5.638 -3.629,-12.149 -1.452,-19.6 1.452,2.168 4.269,2.937 5.808,5.082 1.893,2.633 1.98,6.295 3.991,9.073 1.149,0.179 1.283,-0.653 2.543,-0.362 -0.182,-5.645 -3.703,-9.435 -6.534,-12.705 -2.931,-3.387 -5.537,-6.927 -8.712,-10.164 0.625,-0.824 0.877,-2.026 0.727,-3.63 -4.64,-5.16 -12.672,-6.93 -10.165,-19.236 7.852,3.055 16.809,0.617 20.689,7.259 1.913,3.268 3.671,10.895 1.818,14.155 1.661,5.339 4.022,10.393 6.171,15.61 0.508,1.236 1.094,4.14 3.262,3.629 4.105,-5.849 -4.6,-9.694 -3.628,-17.059 2.561,-0.02 4.195,4.03 7.623,4.355 -1.543,-4.142 -4.227,-7.149 -7.986,-9.075 -0.338,-2.444 -0.452,-5.11 -0.361,-7.985 3.828,1.255 10.243,3.064 12.337,7.259 0.145,1.716 -0.114,3.03 -0.362,4.356 4.588,0.789 3.916,8.599 9.803,6.897 -1.366,-5.287 -5.829,-7.481 -6.533,-13.432 6.34,-3.838 10.095,3.468 14.155,5.445 0.535,-2.717 -2.317,-4.856 -3.994,-6.532 -1.543,-1.543 -3.628,-4.227 -5.442,-5.083 -4.376,-2.06 -11.204,0.765 -14.155,-3.629 3.356,-0.336 4.915,1.132 8.346,0.727 -1.936,-2.421 -5.301,-3.41 -9.075,-3.995 -4.285,-3.213 -6.183,-8.347 -12.338,-8.709 -1.982,-0.118 -4.223,1.086 -6.536,0.726 -1.295,-0.204 -1.917,-1.271 -3.267,-1.816 -6.06,-2.44 -13.164,-3.056 -16.697,-7.623 -1.76,-4.61 -3.408,-10.076 -6.899,-13.068 -4.294,-3.681 -10.988,-4.425 -16.332,-7.62 -1.629,-0.978 -2.959,-3.176 -4.718,-3.993 -3.259,-1.517 -7.328,-0.539 -10.89,-1.09 -4.915,-0.76 -7.544,-3.866 -11.975,-5.08 -2.319,-3.894 -6.958,-6.252 -9.076,-10.528 -0.787,-1.588 -0.558,-3.394 -1.452,-4.718 -1.712,-2.527 -5.367,-2.661 -6.171,-6.169 6.84,-4.13 9.544,6.295 14.519,7.259 3.691,0.714 6.072,-2.186 9.799,-2.543 5.659,-0.539 16.642,-2.49 20.692,-1.087 7.607,2.638 16.08,4.289 19.964,10.524 0.815,1.313 1.004,2.761 1.815,3.995 0.732,1.114 2.187,2.041 2.904,3.267 2.464,4.232 1.456,9.295 3.266,15.243 3.535,2.846 10.247,3.617 16.332,3.267 1.377,-0.079 2.79,-0.671 3.995,-0.362 3.577,0.921 3.014,4.767 5.081,7.258 5.591,1.185 7.783,5.77 7.256,13.068 3.093,2.599 7.037,4.417 9.441,7.623 1.134,1.513 1.07,4.262 3.629,4.354 2.569,-8.785 -11.563,-8.949 -9.804,-18.148 4.046,2.592 7.883,7.954 12.708,11.616 1.724,1.308 4.101,1.963 5.08,3.268 1.52,2.013 0.713,6.671 4.719,5.443 0.374,-1.388 -0.905,-2.362 -1.452,-3.629 -0.603,-1.395 -0.708,-3.335 -1.452,-4.356 -0.993,-1.368 -4.188,-2.773 -6.167,-4.355 -7.19,-5.745 -13.124,-13.632 -21.054,-17.788 -0.166,-3.103 -1.882,-4.649 -1.818,-7.985 -7.187,-1.521 -16.4,-1.021 -20.685,-5.445 -1.362,-5.659 -3.77,-10.269 -4.723,-16.334 3.617,-1.143 6.943,1.008 9.076,2.543 2.148,-0.153 2.557,-2.039 4.356,-2.543 9.626,0.054 16.679,2.679 23.23,5.81 1.63,6.109 5.144,13.72 5.809,21.414 0.189,2.235 -0.231,4.488 0.362,6.17 1.012,2.887 4.487,3.999 5.447,6.535 0.232,2.184 -0.791,5.624 1.448,5.807 1.629,0.496 1.764,-1.462 1.09,-2.178 3.054,0.82 2.621,5.122 7.261,4.356 -1.432,-4.378 -5.75,-5.868 -6.899,-10.527 -3.876,-1.446 -5.824,-4.819 -5.805,-10.163 4.455,3.19 9.839,4.315 13.066,9.075 2.799,4.126 1.153,10.326 1.814,15.971 0.582,4.967 4.285,9.711 7.623,11.252 -0.091,-4.388 -3.27,-5.685 -3.266,-10.163 0.504,0.954 4.183,1.861 6.532,2.176 0.804,-1.112 -2.113,-4.608 -2.9,-6.533 -0.791,-0.303 -1.244,-0.938 -2.542,-0.726 C 99.046,-82.71 86.307,-83.763 81.31,-92.559 l -1.815,0 c -1.027,-5.385 -2.295,-10.529 -2.904,-16.334 5.305,-8.604 9.543,4.926 12.703,8.35 4.269,4.624 7.556,6.178 11.251,8.348 -2.195,7.182 4.058,11.482 8.351,14.518 0.016,-3.798 -3.762,-6.861 -5.442,-10.163 -0.032,-1.358 1.562,-1.098 1.086,-2.905 6.041,2.311 6.509,10.189 8.713,16.334 7.245,-10.004 -3.786,-16.987 -9.438,-21.778 -5.324,-1.208 -9.228,-3.839 -12.707,-6.897 -0.035,-2.623 -1.062,-4.258 -0.724,-7.259 -2.424,-2.414 -6.505,-3.177 -6.895,-7.62 -2.051,-0.493 -3.207,-1.876 -5.084,-2.543 -7.002,4.231 -12.149,3.123 -19.965,-0.362 -3.121,-1.393 -6.737,-5.276 -9.437,-5.083 -2.581,0.185 -3.766,2.848 -5.442,3.269 -12.609,3.154 -14.896,-5.933 -21.779,-9.075 -3.313,-1.513 -6.304,-0.595 -9.437,-3.266 -0.768,-0.76 0.476,-1.366 1.091,-1.815 -3.129,-5.992 -8.839,-1.761 -13.436,0 -4.49,1.722 -16.423,3.477 -22.503,0.724 -1.928,-0.873 -2.082,-3.325 -5.08,-4.718 -1.905,-0.884 -4.145,-0.423 -6.171,-0.726 -13.55,-2.019 -19.397,-14.481 -26.497,-25.045 6.072,-7.296 -6.084,-8.766 -4.356,-15.97 9.003,-2.784 10.452,5.285 14.521,9.437 3.593,3.668 8.147,5.128 9.437,9.073 0.003,1.58 0.118,3.267 -0.366,4.357 4.4,1.046 3.101,7.788 5.084,11.251 2.488,-1.019 0.834,-6.183 1.815,-8.711 -1.256,-1.771 -3.345,-2.704 -3.633,-5.445 4.42,0.907 5.994,4.658 9.804,6.171 0.322,6.572 1.235,12.558 4.717,15.97 0.04,-3.188 -1.754,-7.68 -1.813,-11.978 3.911,0.081 5.289,2.696 9.799,2.179 -2.416,-2.303 -5.155,-4.282 -9.437,-4.719 -0.756,-6.944 -8.792,-6.79 -12.342,-10.889 -2.026,-2.338 -1.924,-4.96 -3.994,-7.623 -8.89,-0.787 -8.631,-10.728 -14.152,-14.881 -1.389,0.304 -2.916,0.473 -4.719,0.361 -1.892,-4.616 -4.808,-10.155 -2.904,-16.695 0.556,-1.925 2.968,-5.994 5.081,-8.349 2.228,-2.485 8.505,-6.151 10.886,-6.169 3.261,-0.028 6.162,3.923 9.074,3.264 2.353,-0.531 3.381,-6.509 9.075,-5.08 2.146,-4.748 -3.03,-7.962 -2.9,-12.342 0.04,-1.419 1.413,-2.495 1.814,-3.992 1.39,-5.175 -0.763,-11.962 1.086,-17.784 8.091,-0.697 14.774,-2.568 15.974,-10.891 1.453,-0.12 2.015,0.646 3.633,0.363 1.66,-2.693 4.171,-4.535 5.442,-7.625 4.128,-2.486 9.343,-1.418 14.151,-1.811 4.37,-0.359 8.037,-2.832 13.794,-1.815 6.156,1.082 8.882,9.239 15.974,6.531 1.933,-0.738 3.896,-2.458 6.171,-4.355 3.751,-3.128 6.679,-4.353 9.8,-7.622 -21.481,-12.788 -48.151,-21.454 -82.035,-19.965 -53.403,2.35 -88.691,29.421 -113.61,59.891 3.085,3.377 7.174,3.148 10.889,5.083 3.207,1.669 6.675,8.569 10.527,9.437 4.781,1.078 8.942,-1.22 11.98,0.724 2.392,1.537 2.491,5.88 4.718,7.261 0.925,0.889 3.789,-0.162 4.718,0.728 -0.169,7.399 -9.913,11.792 -5.446,19.235 0.732,1.223 2.432,2.094 3.633,3.267 0.385,0.38 1.798,0.707 1.813,0.727 1.201,1.52 2.248,6.153 3.991,8.713 0.894,1.306 4.215,3.551 4.357,4.354 0.11,0.619 -1.326,2.271 -1.452,3.267 -0.63,5.015 3.643,8.797 3.266,13.793 -0.433,5.765 -7.171,6.255 -7.258,13.067 -2.462,1.671 -3.934,1.535 -5.084,3.267 -2.656,4.012 -0.326,10.261 -0.724,14.881 -0.385,4.416 -3.188,9.408 -4.718,11.616 -5.616,8.085 -20.519,2.936 -31.578,3.992 -3.821,0.366 -5.801,6.258 -10.165,7.623 -2.598,-1.275 -3.762,-3.983 -6.533,-5.082 -2.401,2.32 -7.859,1.58 -11.617,2.542 -0.468,0.984 -0.889,2.015 -0.724,3.628 3.494,0.618 6.662,1.567 10.89,1.452 1.573,4.664 1.093,8.302 0.723,13.794 -0.512,7.629 -5.593,12.455 -0.362,18.148 3.759,-4.468 3.845,-12.611 6.537,-18.148 -0.244,-0.97 -0.153,-2.269 -0.729,-2.904 3.948,-3.709 4.527,-9.528 8.713,-13.068 4.955,-4.191 12.968,-1.895 21.776,-2.176 1.857,1.411 1.805,4.725 5.446,4.354 0.232,10.278 -11.161,8.924 -17.061,13.068 -2.03,7.761 0.394,16.269 -3.265,21.414 -1.264,1.777 -3.873,2.507 -5.444,3.995 -2.97,2.804 -3.994,6.015 -6.174,9.075 0.131,1.806 1.791,2.08 2.18,3.629 2.228,-2.181 2.279,-5.343 3.994,-7.623 1.996,-2.657 4.909,-3.535 7.257,-5.807 2.869,5.531 6.667,9.677 5.809,16.696 -0.641,5.23 -4.144,11.383 0.362,15.245 3.55,-1.33 1.854,-7.093 2.177,-10.163 0.157,-1.481 0.913,-2.824 1.09,-4.356 1.07,-9.307 -3.195,-17.676 -5.443,-24.319 1.362,-3.147 3.597,-4.482 3.628,-7.987 0.028,-2.855 -2.282,-4.947 0.363,-7.259 4.38,-0.582 9.594,-0.328 12.707,-2.178 3.444,1.393 4.538,5.14 8.709,5.809 1.799,4.457 6.273,7.825 5.809,13.065 -0.41,4.553 -4.589,5.628 -5.809,9.801 -2.723,0.423 -5.887,0.406 -9.075,0.364 -0.625,4.337 -3.07,8.784 -3.628,11.978 0.224,0.504 1.397,0.055 1.452,0.726 3.337,-2.228 2.338,-8.794 6.894,-9.8 -0.609,3.395 -2.507,7.486 -5.442,11.252 -2.263,2.898 -8.374,6.271 -3.267,10.525 0.985,-1.399 -0.479,-3.056 0.725,-3.992 3.215,1.761 -0.06,6.379 0.724,10.163 2.944,-4.042 1.881,-8.772 3.266,-13.429 0.696,-2.336 2.834,-4.33 3.994,-6.897 1.177,-2.607 2.059,-4.967 3.267,-7.259 4.176,-0.268 6.245,-5.224 7.985,-9.075 10.988,7.634 -2.652,18.051 -7.623,23.592 -4.356,4.867 -4.116,10.002 -7.981,14.52 -1.114,0.582 -2.188,1.203 -3.271,1.814 0.233,1.462 -0.471,3.861 0.363,4.719 6.843,-1.515 8.146,-11.692 14.522,-14.88 5.69,6.356 -6.58,14.634 -0.362,20.324 -0.304,-5.3 3.856,-7.581 4.717,-11.977 0.914,-4.661 -2.21,-7.975 -1.089,-12.341 0.598,-2.33 3.408,-2.794 5.443,-5.083 2.916,-3.274 3.333,-8.39 5.446,-11.976 2.767,0.139 2.55,3.255 4.353,4.355 -1.476,3.517 -3.279,9.471 -1.811,12.704 -1.594,4.179 -6.386,6.641 -6.537,11.253 -0.149,4.642 3.984,8.797 3.995,14.156 1.094,-2.867 1.078,-5.986 0.724,-9.075 -0.204,-1.785 -1.499,-3.682 -1.452,-5.081 0.17,-4.664 4.585,-6.368 7.26,-9.437 -1.254,-2.839 -0.983,-8.139 1.091,-9.801 5.084,7.197 3.735,22.146 2.538,32.668 -1.133,1.888 -2.369,3.679 -4.718,4.356 0.205,3.912 0.661,7.568 2.18,10.163 1.149,-1.393 1.177,-3.904 1.086,-6.533 2.991,-3.788 5.522,-8.032 5.809,-14.519 6.415,0.665 15.545,4.519 14.521,11.251 -0.393,2.564 -2.924,2.908 -3.628,5.807 1.168,2.097 1.24,5.291 2.538,7.26 1.693,-2.612 -0.476,-8.48 3.991,-7.622 4.092,0.787 0.626,12.442 7.26,11.615 -0.405,-5.102 -4.317,-9.106 -2.542,-14.156 -2.826,-10.364 -8.819,-17.557 -19.236,-20.326 -3.604,-6.681 -2.074,-18.495 -3.994,-26.859 -4.003,-1.289 -5.742,-5.146 -8.348,-7.987 -4.541,-4.957 -11.144,-8.508 -12.703,-16.334 8.556,0.067 16.828,5.393 15.608,15.246 5.718,4.244 10.527,9.252 10.527,17.784 0,1.944 -1.377,4.528 -1.09,6.535 0.496,3.445 4.597,6.422 6.536,7.622 -1.216,-2.66 -2.679,-5.067 -3.632,-7.986 0.571,-0.778 1.543,1.094 2.905,0.726 -1.303,-3.346 -3.707,-9.847 -3.994,-14.52 -0.044,-0.753 0.558,-2.239 0.362,-2.902 -1.064,-3.599 -5.754,-3.711 -6.171,-7.259 6.741,1.905 14.844,4.85 15.249,12.704 0.067,1.389 -0.795,2.876 -0.728,4.354 0.142,3.215 2.566,6.241 3.991,8.713 0.885,-2.346 -2.527,-6.144 -0.359,-8.713 3.92,1.281 3.464,6.94 7.257,8.349 1.405,4.531 -1.522,8.577 -0.727,12.703 0.535,2.757 4.135,3.928 2.542,6.897 5.174,4.939 3.337,14.866 7.985,19.964 0.834,-1.81 -0.855,-4.219 -0.725,-6.533 3.507,0.245 3.905,3.598 6.899,4.355 0.386,-1 -2.318,-5.01 -3.994,-6.533 -1.106,-1.001 -2.829,-1.692 -3.995,-2.178 -1.007,-6.129 -2.632,-11.643 -5.804,-15.608 0.57,-3.335 1.96,-6.839 1.086,-10.525 5.934,0.6 7.536,8.675 10.527,13.429 0.146,-3.295 -1.409,-8.027 -1.814,-11.979 -6.879,-3.876 -15.753,-10 -18.878,-18.148 -0.516,-1.346 -0.217,-3.067 -0.724,-4.355 -1.181,-2.998 -4.046,-4.95 -4.357,-8.348 -2.585,-0.386 -3.786,-2.767 -6.17,-3.269 -0.866,-0.181 -1.98,0.323 -2.905,0 -6.564,-2.28 -9.098,-10.304 -13.065,-15.243 -10.236,-1.742 -20.229,-3.727 -20.327,-15.608 0.645,-1.291 2.783,-1.09 3.629,-2.179 2.865,-7.553 6.525,-8.386 7.26,-17.786 0.252,-3.222 7.081,-8.852 10.89,-8.711 2.986,0.113 8.886,4.347 11.975,6.171 8.264,4.872 13.561,8.839 20.331,15.608 2.231,2.231 7.598,7.684 7.984,9.799 0.413,2.296 -1.373,4.969 -1.09,7.261 0.673,5.425 8.583,8.697 8.347,14.882 -0.082,2.243 -1.448,3.86 -2.176,6.532 1.323,3.405 4.109,5.237 3.628,9.076 -0.417,3.36 -5.584,7.091 -1.813,10.889 0.353,-4.727 2.534,-7.627 5.446,-9.8 2.825,3.344 2.109,10.233 2.176,16.332 2.743,-3.307 3.904,-10.9 2.18,-15.969 -1.381,-4.062 -7.072,-6.785 -7.627,-10.528 2.814,-7.168 10.272,-0.619 13.798,2.905 2.333,2.336 5.529,5.834 8.347,8.711 2.35,2.402 7.001,7.441 6.898,9.801 -0.22,4.891 -7.536,5.173 -9.798,9.073 3.388,12.955 -10.516,12.66 -10.532,23.231 0,1.019 0.862,2.684 0.725,3.994 -0.374,3.666 -7.627,8.016 -2.9,13.066 1.652,-1.858 0.483,-6.533 2.9,-7.623 5.115,0.954 2.542,8.701 1.451,10.891 3.645,0.427 4.42,-4.494 3.995,-7.261 -0.428,-2.808 -3.369,-5.397 -2.904,-10.525 0.374,-4.13 1.798,-6.586 5.809,-8.711 1.054,3.821 -2.287,6.468 -1.453,9.799 0.421,1.688 4.561,4.429 6.171,7.259 2.279,4.006 2.763,8.284 4.718,10.527 C -0.791,0.413 -0.091,0.512 0,0"
             inkscape:connector-curvature="0"
             id="path130"
             style="fill:#000000;fill-opacity:1;fill-rule:evenodd;stroke:none" /></g><g
           transform="translate(279.1602,211.2139)"
           id="g132"><path
             d="m 0,0 0,-102.667 -14.664,0 0,80.202 -0.272,0 -15.21,-80.202 -8.146,0 -15.206,80.202 -0.272,0 0,-80.202 -14.663,0 0,102.667 22.132,0 11.948,-60.007 0.272,0 L -22.133,0 0,0 z"
             inkscape:connector-curvature="0"
             id="path134"
             style="fill:#231f20;fill-opacity:1;fill-rule:nonzero;stroke:none" /></g><g
           transform="translate(265.7754,109.8301)"
           id="g136"><path
             d="m 0,0 12.102,0 0,100.103 -19.799,0 -11.949,-60.009 -2.376,0 -11.949,60.009 -19.795,0 0,-100.103 12.098,0 0,80.199 2.617,0 L -23.844,0 -17.819,0 -2.613,80.199 0,80.199 0,0 z m 14.668,-2.563 -17.23,0 0,69.276 -13.136,-69.276 -10.272,0 -13.135,69.276 0,-69.276 -17.226,0 0,105.23 24.466,0 11.035,-55.411 11.031,55.411 24.467,0 0,-105.23 z"
             inkscape:connector-curvature="0"
             id="path138"
             style="fill:#231f20;fill-opacity:1;fill-rule:nonzero;stroke:none" /></g><g
           transform="translate(311.5322,146.6572)"
           id="g140"><path
             d="m 0,0 13.581,0 -6.654,44.079 -0.272,0 L 0,0 z m -5.431,-38.11 -16.293,0 18.061,102.667 20.908,0 18.064,-102.667 -16.296,0 -2.988,22.751 -18.464,0 -2.992,-22.751 z"
             inkscape:connector-curvature="0"
             id="path142"
             style="fill:#231f20;fill-opacity:1;fill-rule:nonzero;stroke:none" /></g><g
           transform="translate(313.0234,147.9385)"
           id="g144"><path
             d="M 0,0 10.599,0 5.298,35.109 0,0 z m 13.582,-2.563 -16.561,0 7.042,46.643 2.474,0 7.045,-46.643 z m 5.064,-35.545 13.641,0 -17.607,100.102 -18.76,0 -17.608,-100.102 13.645,0 2.986,22.751 20.717,0 2.986,-22.751 z m 16.695,-2.564 -18.945,0 -2.988,22.752 -16.218,0 -2.986,-22.752 -18.945,0 0.267,1.503 18.241,103.727 23.061,0 18.513,-105.23 z"
             inkscape:connector-curvature="0"
             id="path146"
             style="fill:#231f20;fill-opacity:1;fill-rule:nonzero;stroke:none" /></g><g
           transform="translate(374.416,123.0508)"
           id="g148"><path
             d="m 0,0 5.84,0 c 8.965,0 12.086,3.556 12.086,14.364 l 0,44.933 c 0,10.808 -3.121,14.362 -12.086,14.362 L 0,73.659 0,0 z m -16.836,88.163 24.982,0 c 17.383,0 26.616,-9.953 26.616,-30.999 l 0,-40.669 c 0,-21.044 -9.233,-30.999 -26.616,-30.999 l -24.982,0 0,102.667 z"
             inkscape:connector-curvature="0"
             id="path150"
             style="fill:#231f20;fill-opacity:1;fill-rule:nonzero;stroke:none" /></g><g
           transform="translate(375.7031,124.334)"
           id="g152"><path
             d="m 0,0 4.553,0 c 8.28,0 10.802,3.056 10.802,13.081 l 0,44.933 c 0,10.025 -2.522,13.079 -10.802,13.079 L 0,71.093 0,0 z m 4.553,-2.563 -7.119,0 0,76.22 7.119,0 c 9.744,0 13.365,-4.24 13.365,-15.643 l 0,-44.933 C 17.918,1.677 14.297,-2.563 4.553,-2.563 m -21.393,-11.941 23.699,0 c 17.048,0 25.336,9.721 25.336,29.716 l 0,40.669 c 0,19.997 -8.288,29.718 -25.336,29.718 l -23.699,0 0,-100.103 z m 23.699,-2.563 -26.26,0 0,105.23 26.26,0 c 18.512,0 27.899,-10.862 27.899,-32.282 l 0,-40.669 c 0,-21.42 -9.387,-32.279 -27.899,-32.279"
             inkscape:connector-curvature="0"
             id="path154"
             style="fill:#231f20;fill-opacity:1;fill-rule:nonzero;stroke:none" /></g><g
           transform="translate(433.9316,195.856)"
           id="g156"><path
             d="m 0,0 -16.293,0 0,15.358 49.421,0 0,-15.358 -16.293,0 0,-87.309 L 0,-87.309 0,0 z"
             inkscape:connector-curvature="0"
             id="path158"
             style="fill:#231f20;fill-opacity:1;fill-rule:nonzero;stroke:none" /></g><g
           transform="translate(435.2148,109.8301)"
           id="g160"><path
             d="m 0,0 14.27,0 0,87.309 16.295,0 0,12.794 -46.862,0 0,-12.794 L 0,87.309 0,0 z m 16.835,-2.563 -19.401,0 0,87.308 -16.293,0 0,17.922 51.987,0 0,-17.922 -16.293,0 0,-87.308 z"
             inkscape:connector-curvature="0"
             id="path162"
             style="fill:#231f20;fill-opacity:1;fill-rule:nonzero;stroke:none" /></g><g
           transform="translate(493.8945,165.1416)"
           id="g164"><path
             d="m 0,0 5.975,0 c 9.098,0 12.494,3.556 12.494,15.783 0,12.232 -3.396,15.785 -12.494,15.785 L 0,31.568 0,0 z m 0,-56.595 -16.835,0 0,102.667 23.628,0 c 18.874,0 28.512,-8.39 28.512,-30.289 0,-16.493 -6.108,-23.178 -11.814,-25.879 l 14.258,-46.499 -17.107,0 -11.953,42.519 C 6.518,-14.361 2.987,-14.504 0,-14.504 l 0,-42.091 z"
             inkscape:connector-curvature="0"
             id="path166"
             style="fill:#231f20;fill-opacity:1;fill-rule:nonzero;stroke:none" /></g><g
           transform="translate(495.1777,166.4248)"
           id="g168"><path
             d="m 0,0 4.691,0 c 7.596,0 11.212,2.169 11.212,14.5 0,12.333 -3.616,14.502 -11.212,14.502 L 0,29.002 0,0 z m 4.691,-2.563 -7.253,0 0,34.129 7.253,0 c 10.173,0 13.774,-4.465 13.774,-17.066 0,-12.6 -3.601,-17.063 -13.774,-17.063 m 15.635,-54.032 14.404,0 -14.073,45.901 1.003,0.474 c 7.246,3.432 11.082,11.982 11.082,24.72 0,20.333 -8.145,29.008 -27.232,29.008 l -22.35,0 0,-100.103 14.278,0 0,42.091 1.279,0 c 3.255,0 6.599,0.161 8.524,0.415 l 1.099,0.144 11.986,-42.65 z m 17.871,-2.563 -19.81,0 L 6.47,-16.753 C 4.727,-16.918 2.381,-17.03 0,-17.06 l 0,-42.098 -19.397,0 0,105.23 24.907,0 c 10.114,0 17.39,-2.393 22.243,-7.314 5.08,-5.15 7.552,-13.083 7.552,-24.258 0,-16.438 -6.069,-23.502 -11.555,-26.528 l 14.447,-47.13 z"
             inkscape:connector-curvature="0"
             id="path170"
             style="fill:#231f20;fill-opacity:1;fill-rule:nonzero;stroke:none" /></g><g
           transform="translate(542.0918,108.5469)"
           id="g172"><path
             d="m 0,0 0,102.667 45.08,0 0,-15.358 -28.244,0 0,-26.448 21.723,0 0,-15.356 -21.723,0 0,-30.147 30.141,0 L 46.977,0 0,0 z"
             inkscape:connector-curvature="0"
             id="path174"
             style="fill:#231f20;fill-opacity:1;fill-rule:nonzero;stroke:none" /></g><g
           transform="translate(543.375,109.8301)"
           id="g176"><path
             d="m 0,0 44.414,0 0,12.794 -30.144,0 0,32.709 21.727,0 0,12.792 -21.727,0 0,29.014 28.244,0 0,12.794 L 0,100.103 0,0 z m 46.977,-2.563 -49.543,0 0,105.23 47.642,0 0,-17.922 -28.24,0 0,-23.885 21.723,0 0,-17.921 -21.723,0 0,-27.584 30.141,0 0,-17.918 z"
             inkscape:connector-curvature="0"
             id="path178"
             style="fill:#231f20;fill-opacity:1;fill-rule:nonzero;stroke:none" /></g><g
           transform="translate(599.3994,108.5469)"
           id="g180"><path
             d="m 0,0 0,102.667 45.079,0 0,-15.358 -28.24,0 0,-26.448 21.724,0 0,-15.356 -21.724,0 0,-30.147 30.145,0 L 46.984,0 0,0 z"
             inkscape:connector-curvature="0"
             id="path182"
             style="fill:#231f20;fill-opacity:1;fill-rule:nonzero;stroke:none" /></g><g
           transform="translate(600.6855,109.8301)"
           id="g184"><path
             d="m 0,0 44.415,0 0,12.794 -30.144,0 0,32.709 21.727,0 0,12.792 -21.727,0 0,29.014 28.244,0 0,12.794 L 0,100.103 0,0 z m 46.978,-2.563 -49.543,0 0,105.23 47.641,0 0,-17.922 -28.24,0 0,-23.885 21.724,0 0,-17.921 -21.724,0 0,-27.584 30.142,0 0,-17.918 z"
             inkscape:connector-curvature="0"
             id="path186"
             style="fill:#231f20;fill-opacity:1;fill-rule:nonzero;stroke:none" /></g><g
           transform="translate(279.1602,211.2139)"
           id="g188"><path
             d="m 0,0 0,-102.667 -14.664,0 0,80.202 -0.272,0 -15.21,-80.202 -8.146,0 -15.206,80.202 -0.272,0 0,-80.202 -14.663,0 0,102.667 22.132,0 11.948,-60.007 0.272,0 L -22.133,0 0,0 z"
             inkscape:connector-curvature="0"
             id="path190"
             style="fill:#000000;fill-opacity:1;fill-rule:nonzero;stroke:none" /></g><g
           transform="translate(265.7754,109.8301)"
           id="g192"><path
             d="m 0,0 12.102,0 0,100.103 -19.799,0 -11.949,-60.009 -2.376,0 -11.949,60.009 -19.795,0 0,-100.103 12.098,0 0,80.199 2.617,0 L -23.844,0 -17.819,0 -2.613,80.199 0,80.199 0,0 z m 14.668,-2.563 -17.23,0 0,69.276 -13.136,-69.276 -10.272,0 -13.135,69.276 0,-69.276 -17.226,0 0,105.23 24.466,0 11.035,-55.411 11.031,55.411 24.467,0 0,-105.23 z"
             inkscape:connector-curvature="0"
             id="path194"
             style="fill:#000000;fill-opacity:1;fill-rule:nonzero;stroke:none" /></g><g
           transform="translate(311.5322,146.6572)"
           id="g196"><path
             d="m 0,0 13.581,0 -6.654,44.079 -0.272,0 L 0,0 z m -5.431,-38.11 -16.293,0 18.061,102.667 20.908,0 18.064,-102.667 -16.296,0 -2.988,22.751 -18.464,0 -2.992,-22.751 z"
             inkscape:connector-curvature="0"
             id="path198"
             style="fill:#000000;fill-opacity:1;fill-rule:nonzero;stroke:none" /></g><g
           transform="translate(313.0234,147.9385)"
           id="g200"><path
             d="M 0,0 10.599,0 5.298,35.109 0,0 z m 13.582,-2.563 -16.561,0 7.042,46.643 2.474,0 7.045,-46.643 z m 5.064,-35.545 13.641,0 -17.607,100.102 -18.76,0 -17.608,-100.102 13.645,0 2.986,22.751 20.717,0 2.986,-22.751 z m 16.695,-2.564 -18.945,0 -2.988,22.752 -16.218,0 -2.986,-22.752 -18.945,0 0.267,1.503 18.241,103.727 23.061,0 18.513,-105.23 z"
             inkscape:connector-curvature="0"
             id="path202"
             style="fill:#000000;fill-opacity:1;fill-rule:nonzero;stroke:none" /></g><g
           transform="translate(374.416,123.0508)"
           id="g204"><path
             d="m 0,0 5.84,0 c 8.965,0 12.086,3.556 12.086,14.364 l 0,44.933 c 0,10.808 -3.121,14.362 -12.086,14.362 L 0,73.659 0,0 z m -16.836,88.163 24.982,0 c 17.383,0 26.616,-9.953 26.616,-30.999 l 0,-40.669 c 0,-21.044 -9.233,-30.999 -26.616,-30.999 l -24.982,0 0,102.667 z"
             inkscape:connector-curvature="0"
             id="path206"
             style="fill:#000000;fill-opacity:1;fill-rule:nonzero;stroke:none" /></g><g
           transform="translate(375.7031,124.334)"
           id="g208"><path
             d="m 0,0 4.553,0 c 8.28,0 10.802,3.056 10.802,13.081 l 0,44.933 c 0,10.025 -2.522,13.079 -10.802,13.079 L 0,71.093 0,0 z m 4.553,-2.563 -7.119,0 0,76.22 7.119,0 c 9.744,0 13.365,-4.24 13.365,-15.643 l 0,-44.933 C 17.918,1.677 14.297,-2.563 4.553,-2.563 m -21.393,-11.941 23.699,0 c 17.048,0 25.336,9.721 25.336,29.716 l 0,40.669 c 0,19.997 -8.288,29.718 -25.336,29.718 l -23.699,0 0,-100.103 z m 23.699,-2.563 -26.26,0 0,105.23 26.26,0 c 18.512,0 27.899,-10.862 27.899,-32.282 l 0,-40.669 c 0,-21.42 -9.387,-32.279 -27.899,-32.279"
             inkscape:connector-curvature="0"
             id="path210"
             style="fill:#000000;fill-opacity:1;fill-rule:nonzero;stroke:none" /></g><g
           transform="translate(433.9316,195.856)"
           id="g212"><path
             d="m 0,0 -16.293,0 0,15.358 49.421,0 0,-15.358 -16.293,0 0,-87.309 L 0,-87.309 0,0 z"
             inkscape:connector-curvature="0"
             id="path214"
             style="fill:#000000;fill-opacity:1;fill-rule:nonzero;stroke:none" /></g><g
           transform="translate(435.2148,109.8301)"
           id="g216"><path
             d="m 0,0 14.27,0 0,87.309 16.295,0 0,12.794 -46.862,0 0,-12.794 L 0,87.309 0,0 z m 16.835,-2.563 -19.401,0 0,87.308 -16.293,0 0,17.922 51.987,0 0,-17.922 -16.293,0 0,-87.308 z"
             inkscape:connector-curvature="0"
             id="path218"
             style="fill:#000000;fill-opacity:1;fill-rule:nonzero;stroke:none" /></g><g
           transform="translate(493.8945,165.1416)"
           id="g220"><path
             d="m 0,0 5.975,0 c 9.098,0 12.494,3.556 12.494,15.783 0,12.232 -3.396,15.785 -12.494,15.785 L 0,31.568 0,0 z m 0,-56.595 -16.835,0 0,102.667 23.628,0 c 18.874,0 28.512,-8.39 28.512,-30.289 0,-16.493 -6.108,-23.178 -11.814,-25.879 l 14.258,-46.499 -17.107,0 -11.953,42.519 C 6.518,-14.361 2.987,-14.504 0,-14.504 l 0,-42.091 z"
             inkscape:connector-curvature="0"
             id="path222"
             style="fill:#000000;fill-opacity:1;fill-rule:nonzero;stroke:none" /></g><g
           transform="translate(495.1777,166.4248)"
           id="g224"><path
             d="m 0,0 4.691,0 c 7.596,0 11.212,2.169 11.212,14.5 0,12.333 -3.616,14.502 -11.212,14.502 L 0,29.002 0,0 z m 4.691,-2.563 -7.253,0 0,34.129 7.253,0 c 10.173,0 13.774,-4.465 13.774,-17.066 0,-12.6 -3.601,-17.063 -13.774,-17.063 m 15.635,-54.032 14.404,0 -14.073,45.901 1.003,0.474 c 7.246,3.432 11.082,11.982 11.082,24.72 0,20.333 -8.145,29.008 -27.232,29.008 l -22.35,0 0,-100.103 14.278,0 0,42.091 1.279,0 c 3.255,0 6.599,0.161 8.524,0.415 l 1.099,0.144 11.986,-42.65 z m 17.871,-2.563 -19.81,0 L 6.47,-16.753 C 4.727,-16.918 2.381,-17.03 0,-17.06 l 0,-42.098 -19.397,0 0,105.23 24.907,0 c 10.114,0 17.39,-2.393 22.243,-7.314 5.08,-5.15 7.552,-13.083 7.552,-24.258 0,-16.438 -6.069,-23.502 -11.555,-26.528 l 14.447,-47.13 z"
             inkscape:connector-curvature="0"
             id="path226"
             style="fill:#000000;fill-opacity:1;fill-rule:nonzero;stroke:none" /></g><g
           transform="translate(542.0918,108.5469)"
           id="g228"><path
             d="m 0,0 0,102.667 45.08,0 0,-15.358 -28.244,0 0,-26.448 21.723,0 0,-15.356 -21.723,0 0,-30.147 30.141,0 L 46.977,0 0,0 z"
             inkscape:connector-curvature="0"
             id="path230"
             style="fill:#000000;fill-opacity:1;fill-rule:nonzero;stroke:none" /></g><g
           transform="translate(543.375,109.8301)"
           id="g232"><path
             d="m 0,0 44.414,0 0,12.794 -30.144,0 0,32.709 21.727,0 0,12.792 -21.727,0 0,29.014 28.244,0 0,12.794 L 0,100.103 0,0 z m 46.977,-2.563 -49.543,0 0,105.23 47.642,0 0,-17.922 -28.24,0 0,-23.885 21.723,0 0,-17.921 -21.723,0 0,-27.584 30.141,0 0,-17.918 z"
             inkscape:connector-curvature="0"
             id="path234"
             style="fill:#000000;fill-opacity:1;fill-rule:nonzero;stroke:none" /></g><g
           transform="translate(599.3994,108.5469)"
           id="g236"><path
             d="m 0,0 0,102.667 45.079,0 0,-15.358 -28.24,0 0,-26.448 21.724,0 0,-15.356 -21.724,0 0,-30.147 30.145,0 L 46.984,0 0,0 z"
             inkscape:connector-curvature="0"
             id="path238"
             style="fill:#000000;fill-opacity:1;fill-rule:nonzero;stroke:none" /></g><g
           transform="translate(600.6855,109.8301)"
           id="g240"><path
             d="m 0,0 44.415,0 0,12.794 -30.144,0 0,32.709 21.727,0 0,12.792 -21.727,0 0,29.014 28.244,0 0,12.794 L 0,100.103 0,0 z m 46.978,-2.563 -49.543,0 0,105.23 47.641,0 0,-17.922 -28.24,0 0,-23.885 21.724,0 0,-17.921 -21.724,0 0,-27.584 30.142,0 0,-17.918 z"
             inkscape:connector-curvature="0"
             id="path242"
             style="fill:#000000;fill-opacity:1;fill-rule:nonzero;stroke:none" /></g></g></g></g></svg>